HIERARCHY
ROOT pelvis
{
	OFFSET 0.000000 0.000000 0.735139
	CHANNELS 6 Xposition Yposition Zposition Xrotation Yrotation Zrotation
	JOINT spine
	{
		OFFSET 0.000000 0.000000 0.000000
		CHANNELS 6 Xposition Yposition Zposition Xrotation Yrotation Zrotation
		JOINT spine.001
		{
			OFFSET 0.000000 -0.013834 0.263967
			CHANNELS 3 Xrotation Yrotation Zrotation
			JOINT neck
			{
				OFFSET 0.000000 0.032214 0.262359
				CHANNELS 6 Xposition Yposition Zposition Xrotation Yrotation Zrotation
				JOINT face
				{
					OFFSET 0.000000 0.003392 0.194320
					CHANNELS 6 Xposition Yposition Zposition Xrotation Yrotation Zrotation
					End Site
					{
						OFFSET 0.000000 -0.033564 -0.007568
					}
				}
			}
			JOINT shoulder.L
			{
				OFFSET 0.000000 0.032214 0.262359
				CHANNELS 6 Xposition Yposition Zposition Yrotation Xrotation Zrotation
				JOINT upper_arm.L
				{
					OFFSET 0.161691 0.000000 0.000000
					CHANNELS 6 Xposition Yposition Zposition Xrotation Yrotation Zrotation
					JOINT forearm.L
					{
						OFFSET 0.286043 0.000114 0.000945
						CHANNELS 6 Xposition Yposition Zposition Xrotation Yrotation Zrotation
						End Site
						{
							OFFSET 0.231722 -0.003940 -0.001302
						}
					}
				}
			}
			JOINT shoulder.R
			{
				OFFSET 0.000000 0.032214 0.262359
				CHANNELS 6 Xposition Yposition Zposition Yrotation Xrotation Zrotation
				JOINT upper_arm.R
				{
					OFFSET -0.161691 0.000000 0.000000
					CHANNELS 6 Xposition Yposition Zposition Xrotation Yrotation Zrotation
					JOINT forearm.R
					{
						OFFSET -0.292950 0.000114 0.000945
						CHANNELS 6 Xposition Yposition Zposition Xrotation Yrotation Zrotation
						End Site
						{
							OFFSET -0.233593 -0.003973 -0.001302
						}
					}
				}
			}
		}
	}
	JOINT pelvis.L
	{
		OFFSET 0.000000 0.000000 0.000000
		CHANNELS 6 Xposition Yposition Zposition Yrotation Xrotation Zrotation
		End Site
		{
			OFFSET 0.100878 0.000000 0.000000
		}
	}
	JOINT pelvis.R
	{
		OFFSET 0.000000 0.000000 0.000000
		CHANNELS 6 Xposition Yposition Zposition Yrotation Xrotation Zrotation
		End Site
		{
			OFFSET -0.100878 0.000000 0.000000
		}
	}
	JOINT thigh.L
	{
		OFFSET 0.100878 0.000000 0.000000
		CHANNELS 6 Xposition Yposition Zposition Xrotation Yrotation Zrotation
		JOINT shin.L
		{
			OFFSET 0.018876 0.000000 -0.360167
			CHANNELS 6 Xposition Yposition Zposition Xrotation Yrotation Zrotation
			JOINT foot.L
			{
				OFFSET 0.015738 0.000000 -0.300298
				CHANNELS 3 Xrotation Yrotation Zrotation
				End Site
				{
					OFFSET 0.015484 -0.157873 -0.066294
				}
			}
			JOINT heel.02.L
			{
				OFFSET 0.015738 0.000000 -0.300298
				CHANNELS 3 Xrotation Yrotation Zrotation
				End Site
				{
					OFFSET 0.085742 0.033991 -0.069376
				}
			}
		}
	}
	JOINT thigh.R
	{
		OFFSET -0.100878 0.000000 0.000000
		CHANNELS 6 Xposition Yposition Zposition Xrotation Yrotation Zrotation
		JOINT shin.R
		{
			OFFSET -0.018964 0.000000 -0.361860
			CHANNELS 6 Xposition Yposition Zposition Xrotation Yrotation Zrotation
			JOINT foot.R
			{
				OFFSET -0.016050 0.000000 -0.306243
				CHANNELS 3 Xrotation Yrotation Zrotation
				End Site
				{
					OFFSET -0.016759 -0.170877 -0.071754
				}
			}
			JOINT heel.02.R
			{
				OFFSET -0.016050 0.000000 -0.306243
				CHANNELS 3 Xrotation Yrotation Zrotation
				End Site
				{
					OFFSET -0.074346 0.033991 -0.062313
				}
			}
		}
	}
}
MOTION
Frames: 5
Frame Time: 0.041667
0.035326 0.044452 0.724972 -0.000000 0.000000 -4.827504 0.000000 0.000000 0.000000 -6.680479 2.460740 0.273459 9.999922 0.042001 0.342243 -0.000000 0.032214 0.262359 9.569603 10.795300 19.208201 0.000000 0.003392 0.194320 -2.064849 0.000001 -0.000001 0.000000 0.032214 0.262359 5.941468 0.037794 -0.728252 0.161691 -0.000000 0.000000 24.262263 71.170790 -33.415222 0.286043 0.000114 0.000945 3.153108 9.732869 -36.092926 0.000000 0.032214 0.262359 5.993506 0.038455 -0.734571 -0.161691 -0.000000 0.000000 34.351224 -75.799684 43.290555 -0.292950 0.000114 0.000945 22.740143 -30.309163 72.269487 0.000000 0.000000 -0.000000 1.138338 -0.000000 0.000006 0.000000 0.000000 -0.000000 1.138372 0.000000 0.000000 0.100858 0.000000 -0.002004 0.981443 7.033064 -0.008905 0.018876 0.000000 -0.360167 1.332323 -3.746789 0.113213 -4.348866 -2.982578 5.444941 -16.466618 52.200957 44.405225 -0.100858 0.000000 0.002004 0.521588 -0.116529 -0.026807 -0.018964 -0.000000 -0.361860 1.339020 -0.811455 -0.060719 -6.712490 3.042740 -4.796800 -10.899940 -44.831022 -36.550699 
0.036828 0.045432 0.725506 -0.000000 0.000000 -5.299884 0.000000 0.000000 0.000000 -6.702901 2.229056 0.248147 9.998786 0.131168 1.068516 -0.000000 0.032214 0.262359 9.302793 9.889718 19.409340 0.000000 0.003392 0.194320 -1.552144 0.000000 -0.000000 0.000000 0.032213 0.262359 5.677675 0.034519 -0.696100 0.161691 -0.000000 -0.000000 26.551519 69.808823 -37.328377 0.286043 0.000114 0.000945 4.269329 12.119298 -38.616691 0.000000 0.032213 0.262359 5.729668 0.035152 -0.702440 -0.161691 -0.000000 0.000000 34.055101 -74.630349 43.754807 -0.292950 0.000114 0.000945 26.843268 -31.432681 79.668863 0.000000 0.000000 -0.000000 0.593060 -0.000000 0.000000 0.000000 0.000000 -0.000000 0.593060 -0.000000 0.000000 0.100873 0.000000 -0.001044 -0.015372 6.859479 0.000115 0.018876 -0.000000 -0.360167 3.307085 -3.037960 0.260722 -5.449302 -3.406966 5.957357 -17.317128 52.447920 44.071471 -0.100873 -0.000000 0.001044 -0.085873 0.035597 0.004528 -0.018964 0.000000 -0.361860 2.431116 -0.975923 -0.106769 -7.443241 2.969075 -4.423563 -10.726950 -44.481163 -35.928031 
0.037472 0.045346 0.725438 -0.000000 0.000000 -5.433002 0.000000 0.000000 0.000000 -6.800433 2.083000 0.233680 9.997626 0.179312 1.460413 -0.000000 0.032214 0.262359 8.989403 8.898097 20.206860 0.000000 0.003392 0.194320 -1.060261 0.000000 0.000006 0.000000 0.032213 0.262359 5.303555 0.030123 -0.650348 0.161691 -0.000000 -0.000000 28.689725 68.201508 -41.329150 0.286043 0.000114 0.000945 5.962012 15.519687 -41.411314 0.000000 0.032213 0.262359 5.355592 0.030714 -0.656701 -0.161691 -0.000000 -0.000000 35.972568 -73.226520 47.167582 -0.292950 0.000114 0.000945 30.457576 -32.451728 85.222797 0.000000 -0.000000 0.000000 -0.056231 -0.000000 -0.000038 0.000000 -0.000000 0.000000 -0.056265 -0.000000 0.000000 0.100878 0.000000 0.000099 -1.477752 6.528558 0.006857 0.018876 0.000000 -0.360167 6.282410 -2.107876 0.444838 -7.091706 -3.716650 6.024130 -18.269556 52.599686 43.197893 -0.100878 -0.000000 -0.000099 -0.639455 0.140069 0.034291 -0.018964 0.000000 -0.361860 3.710128 -1.219867 -0.155083 -8.425037 3.060714 -4.308710 -10.970043 -44.375022 -35.384843 
0.037631 0.043887 0.726407 -0.000000 0.000000 -5.527106 0.000000 0.000000 0.000000 -7.033439 1.999353 0.228411 9.997084 0.200049 1.629407 -0.000000 0.032214 0.262359 8.663097 7.863536 20.897329 0.000000 0.003392 0.194320 -0.470765 0.000001 0.000009 0.000000 0.032213 0.262359 4.738853 0.024053 -0.581260 0.161691 -0.000000 -0.000000 31.214675 66.473231 -46.102868 0.286043 0.000114 0.000945 7.787273 18.842771 -43.962031 0.000000 0.032213 0.262359 4.790890 0.024582 -0.587655 -0.161691 -0.000000 0.000000 38.951623 -71.293651 52.442367 -0.292950 0.000114 0.000945 33.463914 -33.555323 88.838262 0.000000 -0.000000 0.000000 -0.563572 -0.000000 -0.000035 0.000000 -0.000000 0.000000 -0.563572 -0.000000 0.000000 0.100873 0.000000 0.000992 -2.704879 6.210832 0.005006 0.018876 -0.000000 -0.360167 8.912619 -1.368382 0.574320 -8.535640 -3.961754 6.020216 -19.169454 52.762781 42.419846 -0.100873 -0.000000 -0.000992 -1.045003 0.279938 0.057313 -0.018964 0.000000 -0.361860 4.848271 -1.508082 -0.190523 -9.344531 3.127098 -4.166153 -11.310402 -44.334823 -34.874785 
0.037942 0.041640 0.729084 -0.000000 0.000000 -5.704269 0.000000 0.000000 0.000000 -7.422126 1.912440 0.225055 9.997057 0.204496 1.665767 -0.000000 0.032214 0.262359 8.627242 6.847223 20.849859 -0.000000 0.003392 0.194320 0.166402 -0.000000 0.000002 0.000000 0.032213 0.262359 3.950841 0.016719 -0.484756 0.161691 0.000000 0.000000 33.857319 64.567943 -51.351421 0.286043 0.000114 0.000945 9.452388 21.741723 -45.788594 0.000000 0.032213 0.262359 4.002878 0.017162 -0.491145 -0.161691 -0.000000 0.000000 41.676148 -68.498021 58.335034 -0.292950 0.000114 0.000945 35.441961 -34.384064 90.822200 -0.000000 -0.000000 0.000000 -0.782011 -0.000000 0.000043 -0.000000 -0.000000 0.000000 -0.782011 -0.000000 0.000000 0.100869 0.000000 0.001377 -3.132404 5.994661 -0.000145 0.018876 0.000000 -0.360167 10.028716 -0.948951 0.609923 -9.110685 -4.155109 6.199695 -19.747868 52.915217 42.100562 -0.100869 -0.000000 -0.001377 -1.206433 0.473683 0.068202 -0.018964 0.000000 -0.361860 5.500816 -1.730994 -0.205504 -9.926421 3.060837 -3.873681 -11.488318 -44.269881 -34.502888 
